<svg id="Layer_1" data-name="Layer 1" xmlns="http://www.w3.org/2000/svg" viewBox="0 0 95.36 95.36"><title>logos</title><path d="M29.86,32.28A7.43,7.43,0,0,0,28,33.43a21,21,0,0,0-7.13,7V4.93h-8v85.5h8V58.67c0-6.91,1.88-12.19,5.63-16.12A6.05,6.05,0,0,1,28,41.3a16.22,16.22,0,0,1,8.06-3.84V30.17A23.6,23.6,0,0,0,29.86,32.28Z" style="fill:#f6fcfe"/><path d="M67.37,54.16V90.43h-8V56.08c0-6.24-1.6-11-4.6-14.4s-7.5-4.89-13.22-4.89a20.4,20.4,0,0,0-5.53.67V30.17a27.61,27.61,0,0,1,7-.77Q54.2,29.4,60.8,36C65,40.24,67.18,46.29,67.37,54.16Z" style="fill:#f6fcfe"/><path d="M29.86,32.28A7.43,7.43,0,0,0,28,33.43V41.3a16.22,16.22,0,0,1,8.06-3.84V30.17A23.6,23.6,0,0,0,29.86,32.28Z" style="fill:#f6fcfe"/><path d="M82.46,4.93v85.5h-8V54.92a19.38,19.38,0,0,1-7.12,7V54.16A11.46,11.46,0,0,0,69,52.81c3.66-3.84,5.53-9.21,5.53-16V4.93Z" style="fill:#f6fcfe"/><path d="M36.05,4.93V30.17a23.6,23.6,0,0,0-6.19,2.11A7.43,7.43,0,0,0,28,33.43V4.93Z" style="fill:#f6fcfe"/><path d="M59.4,58v7.3a42.11,42.11,0,0,1-7,.67q-11.25,0-17.72-6.62c-4.22-4.22-6.47-10.17-6.66-18a16.22,16.22,0,0,1,8.06-3.84v1.82c0,6.34,1.5,11.13,4.6,14.4s7.4,5,13.12,5A21.56,21.56,0,0,0,59.4,58Z" style="fill:#f6fcfe"/></svg>