<svg id="Layer_1" data-name="Layer 1" xmlns="http://www.w3.org/2000/svg" viewBox="0 0 95.14 95.36"><title>logos</title><path d="M29.76,32.28a7.31,7.31,0,0,0-1.88,1.15,21,21,0,0,0-7.12,7V4.93h-8v85.5h8V58.67c0-6.91,1.87-12.19,5.62-16.12a6.05,6.05,0,0,1,1.5-1.25A16.21,16.21,0,0,1,36,37.46V30.17A23.47,23.47,0,0,0,29.76,32.28Z" style="fill:#1f68a2"/><path d="M67.26,54.16V90.43h-8V56.08c0-6.24-1.59-11-4.59-14.4s-7.5-4.89-13.22-4.89a20.3,20.3,0,0,0-5.53.67V30.17a27.51,27.51,0,0,1,7-.77q11.1,0,17.72,6.62C64.92,40.24,67.07,46.29,67.26,54.16Z" style="fill:#1f68a2"/><path d="M29.76,32.28a7.31,7.31,0,0,0-1.88,1.15V41.3A16.21,16.21,0,0,1,36,37.46V30.17A23.47,23.47,0,0,0,29.76,32.28Z" style="fill:#1f68a2"/><path d="M82.36,4.93v85.5h-8V54.92a19.48,19.48,0,0,1-7.13,7V54.16a10.9,10.9,0,0,0,1.59-1.35c3.66-3.84,5.54-9.21,5.54-16V4.93Z" style="fill:#1f68a2"/><path d="M36,4.93V30.17a23.47,23.47,0,0,0-6.19,2.11,7.31,7.31,0,0,0-1.88,1.15V4.93Z" style="fill:#1f68a2"/><path d="M59.29,58v7.3a42,42,0,0,1-7,.67Q41,66,34.54,59.34c-4.22-4.22-6.47-10.17-6.66-18A16.21,16.21,0,0,1,36,37.46v1.82c0,6.34,1.5,11.13,4.59,14.4s7.41,5,13.13,5A21.53,21.53,0,0,0,59.29,58Z" style="fill:#1f68a2"/></svg>