<svg width="384" height="384" viewBox="0 0 384 384" fill="none" xmlns="http://www.w3.org/2000/svg">
<rect width="384" height="384" fill="#F6FCFF"/>
<path fill-rule="evenodd" clip-rule="evenodd" d="M218.157 318.354C255.241 318.354 287.784 290.769 269.508 253.301C251.232 215.834 319.139 217.044 339.087 191.149C363.414 159.569 356.369 25.5172 200.198 107.242C175.182 120.333 110.933 93.774 89.622 106.952C64.5363 122.464 29.2422 154.228 64.5363 186.765C81.9215 202.793 19.5915 244.392 46.8908 281.654C73.5281 318.013 92.2004 283.353 132.755 290.769C173.31 298.185 190.616 318.354 218.157 318.354Z" fill="#2067A1"/>
<path d="M175.114 253.171C175.114 253.171 183.653 249.155 186.841 246.36C190.028 243.566 193.991 236.624 193.991 236.624C193.991 236.624 237.523 268.062 265.908 263.577C272.447 262.544 285.19 258.197 286.003 250.538C288.222 229.623 257.52 224.279 264.227 213.673C268.32 207.199 281.037 216.834 281.037 216.834L333.782 242.778C333.782 242.778 315.56 287.695 271.34 289.495C216.943 291.71 175.114 253.171 175.114 253.171Z" fill="white"/>
<path fill-rule="evenodd" clip-rule="evenodd" d="M133.296 77.2635C132.801 77.0691 130.143 73.8138 126.767 73.2213C125.234 72.952 126.626 74.905 124.938 74.9226C119.91 74.9749 111.74 74.0304 110.227 74.9226C109.102 75.5836 111.579 77.8926 110.227 77.9986C97.467 78.9988 78.0009 91.739 73.7776 97.92C72.4335 99.887 83.304 96.5497 81.572 97.5221C79.6281 98.6136 77.4721 105.76 76.1831 111.28C75.2907 115.081 74.7288 119.973 74.5304 125.294C74.3652 129.888 74.4313 130.649 75.0923 133.161C75.8525 135.97 76.4475 136.796 77.4721 136.4C77.8357 136.268 78.0009 135.772 78.0009 134.846C78.0009 134.119 78.3976 131.938 78.8933 129.988L79.7527 126.484L80.1163 127.938C80.579 129.624 83.2893 134.846 85.7352 138.647C85.8671 138.849 86.4346 138.592 86.9464 137.355C87.4128 136.228 87.2235 134.427 88.0158 132.497C89.8204 128.101 93.3639 122.385 97.467 117.809C103.531 111.047 105.543 103.221 111.227 96.9385C121.835 85.2146 135.149 77.991 133.296 77.2635Z" fill="white"/>
<path fill-rule="evenodd" clip-rule="evenodd" d="M81.7231 99.1173C80.0214 100.486 77.4955 111.585 77.4521 111.77C76.5597 115.571 75.6995 128.771 76.5788 131.27C77.4581 133.769 79.9203 124.761 79.9203 124.761C79.9203 124.761 83.6419 134.424 86.9303 137.074C87.0707 137.187 83.0216 125.118 81.7231 118.072C80.0091 108.771 82.6916 98.3385 81.7231 99.1173Z" fill="#E7EAEE"/>
<path fill-rule="evenodd" clip-rule="evenodd" d="M145.149 293.505C148.322 292.811 153.676 290.393 155.726 289.567C157.776 288.74 164.022 279.92 166.27 269.971C167.889 262.634 168.716 252.189 167.79 250.438C167.653 250.189 167.153 245.44 168.484 246.99C171.443 250.438 174.954 255.849 186.035 246.152C189.053 243.511 193.052 240.102 191.999 237.089C189.053 228.657 176.279 211.679 174.331 210.393C172.003 208.855 160.234 210.162 142.72 204.992C122.858 199.13 114.587 181.867 106.815 184.114C100.529 185.932 85.4685 197.1 81.6888 204.172C63.8449 237.56 85.4685 260.955 90.393 267.675L95.1743 269.74L95.3396 274.004L95.571 276.681C96.0006 281.804 96.1659 282.267 98.4796 283.986C104.264 288.382 115.667 292.48 125.979 293.934C130.772 294.595 141.183 294.364 145.149 293.505Z" fill="white"/>
<path fill-rule="evenodd" clip-rule="evenodd" d="M97.0554 272.443L97.2867 275.12C97.7164 280.243 97.8817 280.706 100.195 282.425C103.608 285.018 108.975 287.508 114.921 289.412C119.054 290.736 123.466 291.777 127.695 292.374C132.487 293.035 142.899 292.803 146.865 291.944C148.826 291.519 132.7 278.85 123.2 282.425C115.904 285.17 98.7088 264.23 105.7 258.759C113.543 252.622 99.1715 228.416 98.7088 223.161C98.246 217.906 96.4237 216.651 96.3705 216.835C96.3174 217.019 96.3174 217.648 96.4604 219.163C97.077 225.693 97.0554 272.443 97.0554 272.443Z" fill="#E7EAEE"/>
<path fill-rule="evenodd" clip-rule="evenodd" d="M95.3335 221.661C96.0274 221.526 96.6994 221.979 96.8345 222.673C99.329 235.489 109.881 244.165 128.749 248.702C147.729 253.266 160.657 253.02 167.469 248.148C168.044 247.737 167.615 251.259 167.194 251.529C162.751 254.378 147.646 258.629 129.619 254.787C106.571 249.874 95.7487 230.493 94.3217 223.162C94.1866 222.468 94.6396 221.796 95.3335 221.661Z" fill="#FFB61D"/>
<path fill-rule="evenodd" clip-rule="evenodd" d="M85.7217 198.538C86.3353 198.187 109.228 224.424 140.644 230.363C172.06 236.301 179.666 232.524 180.889 224.424C180.995 223.725 181.647 223.244 182.346 223.349C183.045 223.455 183.526 224.107 183.42 224.806C181.871 235.072 167.334 237.514 140.213 232.886C113.433 228.316 95.0727 217.459 85.2464 200.285C84.8953 199.671 85.1081 198.889 85.7217 198.538Z" fill="#FFB61D"/>
<path fill-rule="evenodd" clip-rule="evenodd" d="M217.581 197.084C216.721 196.786 215.796 196.125 215.201 195.365L214.209 194.142L217.713 190.671C223.1 185.383 227.232 179.963 230.802 173.517C231.991 171.369 234.999 164.197 234.999 163.503C234.999 163.271 235.363 162.346 235.792 161.387C236.454 159.999 236.949 159.47 238.371 158.677C240.056 157.685 241.973 157.355 242.8 157.917C244.386 158.974 244.386 162.313 242.8 168.064C241.048 174.377 238.701 178.905 233.842 185.416C233.082 186.408 231.661 188.358 230.636 189.713C227.893 193.349 226.108 195.1 223.695 196.456C221.316 197.778 219.927 197.943 217.581 197.084ZM241.312 194.109L243.692 195.167C244.185 195.394 249.629 198.01 256.168 201.152C266.71 206.217 280.1 212.651 280.182 212.651C280.314 212.651 280.934 211.217 281.074 209.544C281.405 205.942 282.627 201.05 284.049 197.645C284.71 196.125 285.239 194.225 285.239 194.06C285.239 193.984 284.701 193.767 283.822 193.413C282.774 192.99 281.242 192.372 279.554 191.564C271.224 187.565 254.93 179.401 252.914 178.178C250.93 177.021 250.534 176.922 250.534 177.682C250.534 178.673 248.518 183.268 246.964 185.747C246.138 187.102 244.518 189.548 243.361 191.167L241.312 194.109ZM279.62 206.702C280.568 207.251 278.926 208.057 278.529 208.189C276.194 208.387 273.444 207.948 271.191 206.636C270.013 205.8 260.739 200.648 254.587 197.23C251.774 195.667 249.614 194.467 249.179 194.208C247.79 193.382 246.468 192.489 246.237 192.225C245.543 191.332 246.204 190.936 248.154 191.101C249.326 191.2 277.573 205.515 279.62 206.702ZM145.262 293.232C147.812 292.675 151.77 291.005 154.29 289.941C154.906 289.681 155.436 289.457 155.839 289.295C157.889 288.468 164.135 279.648 166.383 269.699C168.002 262.362 168.829 251.917 167.903 250.165C167.345 249.151 170.66 252.554 173.129 255.089C173.877 255.857 174.548 256.546 175.009 257.007C189.42 271.319 210.871 282.821 233.148 288.209C244.254 290.919 252.153 291.877 262.763 291.877C280.578 291.877 294.625 288.374 307.384 280.673C307.99 280.307 308.558 279.971 309.099 279.65C313.546 277.017 316.196 275.449 323.447 267.286C331.581 258.131 338.816 236.878 341.229 229.541C342.287 226.236 344.865 213.089 344.865 209.809C344.865 205.925 343.51 204.091 341.659 202.207C338.387 199.001 333.958 197.844 330.289 199.232L328.57 199.893L328.041 198.141C327.281 195.497 325.694 193.382 323.249 191.795C319.613 189.382 319.084 189.217 315.812 189.217C313.267 189.217 312.573 189.349 310.953 190.11L309.069 190.969L308.673 189.779C307.912 187.333 305.363 183.924 303.384 182.937C301.63 182.062 298.593 181.982 296.476 182.375C291.849 183.235 288.544 185.383 287.189 188.391C286.792 189.316 286.296 190.043 286.098 190.043C285.933 190.043 279.421 188.225 271.654 184.788C270.344 184.206 269.113 183.66 267.957 183.148C254.009 176.966 250.986 175.626 251.261 173.947C251.492 172.526 251.426 171.733 251.03 170.51C250.335 168.46 249.542 167.898 247.295 167.898C245.51 167.898 245.51 167.898 245.708 167.006C246.766 161.949 246.733 159.04 245.609 157.19C244.849 155.967 243.956 155.471 241.907 155.173C240.717 155.008 240.155 155.107 238.833 155.834C237.941 156.297 237.181 156.628 237.115 156.562C237.048 156.495 237.28 154.678 237.643 152.529C240.354 136.631 238.26 122.933 231.352 108.39C231.286 108.252 231.21 108.088 231.123 107.901L231.121 107.898C229.021 103.39 220.577 85.2602 196.427 76.1124C195.334 75.6984 194.3 75.298 193.306 74.9132C185.079 71.729 179.611 69.6122 166.416 69.6342C151.627 69.6588 146.618 71.7495 136.867 76.2116C135.512 76.8396 134.322 77.2032 134.223 77.071C134.124 76.9057 133.496 76.5091 132.868 76.1785C132.24 75.848 130.885 75.0217 129.893 74.3607C127.051 72.4436 125.299 71.6504 124.406 71.8487C123.382 72.1131 123.382 72.9725 124.406 73.3691C124.836 73.5344 125.332 74.0963 125.53 74.6581C125.96 75.848 126.456 75.9802 126.753 74.9887C126.885 74.6251 127.084 74.3607 127.183 74.4268C127.22 74.4456 127.346 74.5044 127.538 74.5943L127.538 74.5944C128.021 74.8205 128.923 75.2428 129.893 75.7158C131.248 76.3769 132.736 77.071 133.132 77.2362C133.859 77.5006 133.628 77.6989 130.488 79.5499C118.226 86.7553 108.244 97.96 102.658 110.718C101.799 112.635 101.039 113.825 100.245 114.486C98.2291 116.172 94.2628 120.964 93.3374 122.848C92.8416 123.873 91.7839 125.459 90.9576 126.385C90.1644 127.31 89.305 128.5 89.0075 128.996C88.7431 129.525 88.4787 129.888 88.3795 129.822C88.3134 129.723 88.4126 128.104 88.644 126.22C89.1397 121.824 89.1397 120.667 88.7431 120.568C88.1482 120.402 87.2888 122.716 86.9252 125.592C86.6608 127.343 86.5947 129.988 86.76 132.698L86.9583 136.995L84.6116 133.194C83.8033 131.921 83.0073 130.647 82.4428 129.744C82.0839 129.171 81.8186 128.746 81.703 128.566C80.8436 127.31 80.3478 125.426 80.7114 124.798C80.9097 124.435 80.8767 124.27 80.5462 124.27C79.8521 124.27 78.4969 126.484 77.6045 129.029C77.1748 130.219 76.7452 131.21 76.6129 131.21C76.1172 131.21 76.3485 119.378 76.8774 115.577C77.9681 108.074 80.8436 98.8193 82.1327 98.8193C82.3971 98.8193 82.6285 98.6871 82.6285 98.4888C82.6285 97.8939 81.7691 98.1252 81.075 98.8854C79.5215 100.571 77.4723 105.76 76.1833 111.28C75.2909 115.081 74.729 119.973 74.5307 125.294C74.3654 129.888 74.4315 130.649 75.0925 133.161C75.8527 135.97 76.4477 136.796 77.4723 136.4C77.8359 136.267 78.0011 135.772 78.0011 134.846C78.0011 134.119 78.3978 131.938 78.8936 129.988L79.7529 126.484L80.1165 127.938C80.5792 129.624 83.2895 134.846 85.7354 138.647C87.421 141.225 87.4541 141.391 88.016 145.423C88.3134 147.704 89.2389 153.251 91.3873 161.784C93.2855 169.323 103.957 176.802 106.621 178.67C106.973 178.916 107.185 179.065 107.219 179.103C107.55 179.467 108.013 179.665 108.277 179.566C108.574 179.467 108.74 179.599 108.74 179.963C108.74 180.293 108.971 180.723 109.235 180.921C109.566 181.152 109.797 182.045 109.863 183.598C110.029 186.705 112.342 192.655 114.127 194.605C115.284 195.861 117.697 196.389 120.374 195.927C122.126 195.662 122.622 195.464 122.456 195.067C122.357 194.803 122.985 195.133 123.845 195.795C133.892 203.463 144.073 208.057 155.509 210.04C159.938 210.8 167.275 211.23 171.275 210.932C173.839 210.765 174.544 210.719 174.675 210.971C174.724 211.066 174.691 211.204 174.646 211.395C174.414 212.321 174.712 212.883 179.571 221.113C183.438 227.624 183.768 228.054 188.065 232.449C197.187 241.869 207.136 249.174 218.407 254.826C229.017 260.114 245.956 264.51 261.441 265.898C276.926 267.286 288.048 253.074 288.015 249.438C287.949 244.447 287.255 241.175 285.569 238.002C283.916 234.928 282.826 233.871 277.868 230.565C272.348 226.897 268.944 223.889 266.696 220.683C265.275 218.667 264.746 216.386 264.746 215.163C264.746 214.37 265.771 212.585 267.291 212.221C268.679 211.858 268.944 211.891 270.497 212.651C271.423 213.081 273.836 214.205 275.819 215.163C277.835 216.089 279.785 217.014 280.182 217.212C281.351 217.537 281.845 219.826 282.113 221.067C282.173 221.344 282.222 221.569 282.264 221.707C282.727 223.426 284.916 225.645 286.329 226.401C288.81 227.728 294.923 227.905 296.609 226.087C297.039 225.624 298.463 225.055 298.757 225.228C299.05 225.4 300.112 226.831 300.112 227.987C300.145 229.971 301.17 231.788 303.351 233.606C307.483 237.044 310.689 237.87 313.928 236.35C315.614 235.556 316.995 235.247 316.995 235.247C316.995 235.247 318.373 237.005 318.456 237.606C319.105 242.302 326.058 244.27 327.909 244.469C328.333 244.511 329.159 244.33 329.997 244.145C331.118 243.899 332.263 243.647 332.503 243.919C332.975 244.451 324.604 258.296 323.447 260.048C312.441 276.574 291.023 286.688 264.812 287.746C247.79 288.44 226.868 283.68 208.723 275.021C197.121 269.435 186.842 262.593 175.836 253.008C173.919 251.355 171.704 249.471 170.911 248.81C170.118 248.182 168.234 246.034 166.779 244.051C164.334 240.746 162.945 239.556 162.945 240.679C162.945 241.175 164.532 244.216 166.35 247.224C167.077 248.414 167.54 249.24 167.374 249.108C167.209 248.976 166.68 251.355 166.184 254.396C164.565 264.147 161.888 273.765 159.177 279.747C157.69 282.986 154.838 285.405 153.979 286.066C150.806 288.479 146.056 289.564 139.478 290.225C131.149 291.051 118.887 289.2 109.533 285.697C107.054 284.771 100.675 282.094 100.245 281.796C100.22 281.771 100.073 280.82 99.8687 279.493L99.8679 279.488L99.8677 279.486L99.8665 279.479L99.8662 279.476C99.8092 279.107 99.7479 278.708 99.6834 278.293C98.4935 270.129 96.8409 238.696 96.8409 224.153C96.8409 218.138 96.7748 216.816 96.3782 216.816C95.5519 216.816 95.2213 217.609 94.8578 220.452C94.0315 226.93 94.1967 260.742 95.0891 267.848L95.2875 269.468L94.1637 268.84C92.445 267.848 85.9006 261.205 83.62 258.131C81.6893 255.503 80.5418 252.138 79.6833 249.62C79.4836 249.034 79.2995 248.494 79.1249 248.02C74.3323 234.733 76.018 219.824 82.6285 206.404C88.2473 194.968 95.1552 188.622 105.269 185.548C106.922 185.053 108.376 184.524 108.541 184.392C109.169 183.797 105.137 184.094 102.923 184.788C95.7171 187.003 88.1812 193.051 83.0581 200.785C75.8527 211.627 72.6136 227.624 74.8942 241.274C75.4231 244.514 77.5715 251.521 78.1664 252.016C78.2191 252.069 78.4909 252.639 78.9021 253.502C80.0389 255.887 82.2406 260.506 83.8183 262.593C85.7354 265.204 91.5195 270.889 93.9323 272.641L95.4527 273.732L95.6841 276.409C96.1138 281.532 96.279 281.995 98.5927 283.713C104.377 288.109 115.78 292.208 126.092 293.662C130.885 294.323 141.296 294.092 145.262 293.232ZM256.979 262.196C237.776 260.511 214.573 251.355 197.782 237.208C190.709 231.226 181.521 219.592 177.885 213.147C177.125 211.825 176.563 211.197 175.902 211.032C175.208 210.833 175.803 210.635 178.645 210.172C190.643 208.123 202.311 203.132 211.73 196.026L213.119 195.001L213.515 195.96C214.408 198.108 217.845 200.29 220.39 200.29C221.415 200.29 224.852 198.736 226.934 197.315L228.356 196.356L229.513 197.513C230.57 198.571 230.769 198.637 232.752 198.637C235.032 198.637 237.776 197.612 239.296 196.158L240.122 195.398L242.469 196.951C243.725 197.844 247.229 199.794 250.236 201.347C254.731 203.661 259.491 206.338 264.019 209.115L264.746 209.577L264.052 210.503C263.325 211.494 261.97 213.378 261.97 216.254C261.97 219.493 265.339 225.313 271.786 229.309C276.852 232.449 285.569 238.626 285.239 247.653C285.199 248.744 283.983 251.454 282.363 253.9C281.305 255.454 278.364 257.767 275.687 259.123C271.125 261.403 263.094 262.725 256.979 262.196ZM80.7445 113.825C81.6369 114.023 82.2318 114.321 82.0996 114.453C81.6699 114.883 79.3893 114.684 78.8605 114.156C78.0342 113.362 78.2325 112.8 79.3893 112.569C79.9843 112.47 80.8767 111.974 81.3725 111.478C81.8682 110.983 82.2979 110.751 82.2979 110.916C82.2979 111.346 80.6453 112.867 79.819 113.197C79.2902 113.428 79.4554 113.528 80.7445 113.825ZM93.8993 114.354C94.8578 113.825 94.6595 113.461 93.5357 113.627C92.4119 113.792 92.3458 113.66 93.073 112.536C93.3704 112.106 93.5357 111.478 93.4696 111.148C93.3704 110.718 93.1391 110.916 92.6102 111.974C92.2136 112.734 91.6517 113.362 91.3873 113.362C90.561 113.362 90.4949 114.023 91.2881 114.321C92.3128 114.75 93.106 114.75 93.8993 114.354ZM82.4632 96.3074C81.6699 96.4396 79.191 97.4311 77.0096 98.5218C74.7951 99.5795 72.9111 100.472 72.7789 100.439C69.4076 100.075 74.101 94.4564 82.6285 88.7053C90.7924 83.1856 96.3121 80.277 101.435 78.7897C104.641 77.8642 108.244 77.732 109.269 78.4922C109.83 78.9219 109.632 78.9549 107.186 78.988C101.898 78.988 95.7832 81.6983 85.8345 88.3418C80.6784 91.7792 74.6959 96.704 74.6959 97.4972C74.6959 97.6625 75.6544 97.332 76.8443 96.8031C79.3893 95.6463 82.0005 95.0514 83.1573 95.3158C84.3802 95.6463 84.1158 96.076 82.4632 96.3074ZM95.2544 99.1498C98.3613 98.5219 98.4935 98.4888 98.4935 98.1583C98.4935 97.993 97.3036 97.8278 95.8163 97.7617L93.1391 97.6625L95.618 94.8531C96.9731 93.2996 98.5596 91.7462 99.1215 91.3826C100.344 90.5893 100.411 90.0274 99.419 89.6969L98.6588 89.4655L99.4851 89.1681C99.9478 89.0028 100.807 88.9367 101.402 89.0359C102.295 89.1681 102.493 89.102 102.394 88.6392C102.295 88.1765 101.931 88.0774 100.311 88.1104C95.5849 88.1765 93.5687 89.4325 97.2706 90.0274C98.2952 90.1927 99.1546 90.4571 99.1546 90.6224C99.1546 90.7546 98.9893 90.8868 98.791 90.8868C98.163 90.8868 92.8416 96.2743 92.1805 97.5964C91.1559 99.5465 91.7178 99.8439 95.2544 99.1498ZM117.069 86.3256C116.11 86.3917 115.879 86.5569 115.945 87.0197L115.955 87.087C115.992 87.3315 116.014 87.4719 115.959 87.5146C115.885 87.5722 115.672 87.4515 115.172 87.168L115.086 87.1188C114.458 86.7883 114.392 86.6231 114.755 86.3586C114.987 86.1603 115.615 85.8629 116.11 85.7637L117.036 85.5323L116.342 84.8052C115.978 84.3755 115.78 83.9789 115.879 83.8467C116.143 83.5822 119.383 83.9458 119.845 84.3094C120.044 84.4747 120.341 84.4416 120.539 84.2433C121.002 83.7806 121.63 84.1441 121.63 84.8713C121.63 85.2679 121.531 85.301 121.233 85.0035C120.969 84.7391 120.738 84.7391 120.44 84.9704C120.176 85.2018 119.977 85.2018 119.812 84.9374C119.713 84.7721 119.085 84.6069 118.424 84.6069C117.814 84.6069 117.526 84.6069 117.467 84.7231C117.414 84.8273 117.546 85.0251 117.796 85.4001C118.323 86.2239 118.292 86.2264 117.08 86.3247L117.069 86.3256ZM112.045 77.5337C112.045 77.104 111.648 76.3438 111.153 75.848L110.227 74.9226L115.185 75.1209C117.928 75.2531 121.035 75.5506 122.126 75.848C123.217 76.1124 124.473 76.3108 124.935 76.3108C125.629 76.3108 125.497 76.1785 124.208 75.4844C121.961 74.3276 119.085 73.7657 113.565 73.3691C106.955 72.9064 103.617 73.5344 104.245 75.187C104.344 75.5175 104.873 75.6828 105.666 75.6828C107.285 75.6828 109.93 76.6413 110.822 77.5337C111.781 78.4922 112.045 78.4922 112.045 77.5337ZM95.9154 165.056C98.5927 168.493 102.129 172.394 103.782 173.716C104.773 174.509 105.633 175.17 105.699 175.17C105.732 175.17 105.005 173.65 104.079 171.799C100.344 164.362 98.163 156.958 97.1384 148.431C96.907 146.547 96.5434 144.96 96.1468 144.299C95.3535 142.977 95.3535 141.258 96.1799 139.639C96.6095 138.779 96.8409 137.689 96.8409 136.499V134.681L95.2544 136.334C93.7009 137.953 92.2136 138.614 92.2136 137.623C92.2136 136.895 94.6595 133.392 95.9485 132.301C96.9731 131.442 97.1053 131.144 97.4358 128.566C97.6672 127.013 98.196 124.27 98.6257 122.452C99.0884 120.634 99.3529 119.08 99.2868 119.014C99.0554 118.783 91.2881 127.704 90.2305 130.549C89.9982 131.174 89.3711 132.268 88.8753 132.929L88.016 134.033C88.016 134.033 88.2829 135.578 88.5778 137.519C88.8758 139.481 89.0157 140.83 89.1402 142.031C89.3068 143.638 89.446 144.981 89.8999 147.175C90.4288 149.885 90.9576 152.232 91.0898 152.397C91.189 152.595 91.6187 154.116 92.0483 155.801C92.9738 159.536 94.5272 163.238 95.9154 165.056ZM230.041 196.323L229.347 195.629C229.347 195.629 240.867 180.993 242.932 175.6C244.507 171.484 245.434 170.317 246.685 170.317C247.385 170.317 247.956 170.477 248.22 170.873C248.683 171.567 249.129 172.427 248.534 175.368C247.542 180.128 246.022 183.268 241.461 190.043C240.403 191.597 239.048 193.316 238.453 193.911C237.065 195.2 233.942 196.522 232.124 196.819C230.967 196.984 230.636 196.918 230.041 196.323Z" fill="#2067A1"/>
<path d="M321.563 228.657C325.675 217.453 325.052 215.066 324.339 214.833C324.339 214.833 322.769 215.725 322.075 217.609C320.786 221.146 316.373 230.4 314.721 232.053C312.771 234.003 312.771 234.003 310.788 234.003C308.804 234.003 303.085 231.016 302.306 228.072C301.06 223.362 306.425 206.999 306.557 206.074L305.665 205.446C305.07 206.008 297.331 229.475 287.155 223.36C285.99 222.66 283.52 219.361 283.321 217.609C282.22 212.519 287.273 194.72 288.133 191.064C288.902 187.792 292.906 184.755 297.831 184.755C305.4 184.755 304.383 191.371 307.774 193.703C309.276 194.736 311.745 192.863 312.506 192.721C316.77 191.927 318.404 192.851 321.53 195.332C323.942 197.247 325.728 201.037 327.692 202.372C328.784 203.114 329.942 202.1 330.321 201.909C331.877 201.129 335.213 201.711 336.139 202.372C337.495 202.964 340.82 206.159 341.345 208.018C343.726 216.443 336.209 235.119 333.371 238.623C328.674 244.422 317.451 239.861 321.563 228.657Z" fill="white"/>
<path fill-rule="evenodd" clip-rule="evenodd" d="M131.546 197.958C140.602 203.676 149.94 207.411 160.583 208.435C168.978 209.229 180.298 208.138 188.429 205.494C195.27 203.279 204.525 197.145 210.706 191.955C222.704 181.908 230.273 166.213 233.578 149.554C234.041 147.208 234.746 141.309 234.713 135.459C234.713 128.65 231.717 110.043 222.638 99.315C203.912 77.1878 173.131 67.2201 147.261 75.7368C137.929 78.8091 127.994 84.3754 120.491 91.6469C111.038 100.868 104.064 113.428 101.287 126.253C98.3788 139.804 102.162 156 108.74 169.287C113.995 179.863 122.655 192.306 131.546 197.958ZM219.795 158.016C213.581 176.69 197.386 190.638 177.026 194.869C173.919 195.497 171.77 195.728 167.407 195.794C164.334 195.894 161.26 195.861 160.632 195.794C146.386 194.076 135.545 188.82 125.563 178.839C121.2 174.443 119.35 172.063 116.639 167.37C112.376 159.933 110.095 152.331 109.401 143.175C107.021 111.809 129.464 85.6644 161.061 82.9542C173.456 81.8965 187.206 85.6975 197.65 93.1012C201.517 95.8445 208.524 102.785 210.706 106.025C211.598 107.314 220.258 119.973 221.778 127.244C223.728 136.697 222.968 148.53 219.795 158.016Z" fill="white"/>
<path fill-rule="evenodd" clip-rule="evenodd" d="M234.725 135.459C234.725 157.644 224.231 181.898 210.688 192.256C204.226 197.198 195.782 203.182 188.429 205.494C177.652 208.882 160.583 208.436 160.583 208.436C160.583 208.436 177.997 206.108 184.45 203.511C202.956 196.063 213.057 184.631 219.295 173.662C231.608 152.01 234.725 134.92 234.725 135.459Z" fill="#E7EAEE"/>
<path fill-rule="evenodd" clip-rule="evenodd" d="M160.962 191.828C152.137 190.705 143.379 187.565 136.305 182.904C132.108 180.161 125.762 173.716 122.688 169.121C118.292 162.511 115.383 155.438 113.962 147.836C112.937 142.316 112.971 133.822 113.995 128.897C115.053 123.873 116.408 120.039 118.821 115.18C121.63 109.561 124.605 105.43 129.067 100.968C136.669 93.3658 145.494 88.5402 156.005 86.2265C159.409 85.4994 171.737 84.9044 172.167 85.4663C172.266 85.6316 172.927 86.0613 173.621 86.4248C174.315 86.8215 176.166 88.2097 177.687 89.5648C179.967 91.5479 180.992 92.8039 182.975 95.9108C184.33 98.0262 185.421 99.9432 185.421 100.108C185.421 100.472 186.479 101.133 187.074 101.133C187.9 101.133 188.462 98.6542 188.627 94.2913C188.726 91.8784 188.925 89.8953 189.057 89.8953C189.519 89.8953 194.61 92.7048 196.989 94.2913C201.65 97.3982 206.31 101.761 209.747 106.322C211.301 108.372 211.532 108.9 211.532 110.156C211.532 111.313 211.863 112.206 212.887 113.99C215.465 118.485 217.482 124.137 218.705 130.384C219.498 134.582 219.498 142.514 218.672 146.91C216.424 159.008 209.747 171.039 201.055 178.674C193.684 185.119 185.851 189.085 176.596 191.035C173.423 191.729 163.904 192.192 160.962 191.828ZM137.33 169.221C137.627 168.89 137.826 168.394 137.727 168.163C137.697 168.094 137.283 167.899 136.678 167.614L136.678 167.614L136.677 167.614L136.677 167.614C135.265 166.95 132.81 165.796 131.746 164.593C127.515 159.768 125.962 156.165 125.003 148.728C124.078 141.49 124.855 136.596 126.524 128.732C127.338 124.895 129.501 121.726 130.847 119.754C131.762 118.414 132.299 117.627 131.777 117.56C130.488 117.362 130.29 117.461 128.935 118.75C126.026 121.526 124.704 123.741 123.316 128.005C121.167 134.681 120.752 152.724 125.003 160.858C129.254 168.993 136.57 170.08 137.33 169.221ZM184.33 141.457C183.769 146.591 181.389 154.017 178.612 157.256C177.323 158.776 172.591 161.387 168.597 160.858C164.74 160.348 161.723 158.545 159.144 154.678C156.93 151.339 155.786 147.287 155.013 142.184C153.678 133.371 159.508 123.113 162.02 120.568C164.565 117.957 166.383 117.031 168.697 116.998C170.944 116.998 172.398 117.494 174.679 119.113C178.844 122.022 185.421 131.479 184.33 141.457ZM139.776 114.123C140.437 113.362 140.536 112.999 140.338 111.578C140.206 110.255 139.941 109.727 139.247 109.165C138.024 108.173 136.504 108.173 135.38 109.231C134.587 109.991 134.488 110.255 134.587 112.073C134.686 114.023 134.752 114.156 135.843 114.751C137.297 115.544 138.718 115.312 139.776 114.123ZM160.4 93.7294C154.451 97.9931 151.873 99.7449 149.196 101.397C147.08 102.72 146.419 102.753 146.419 101.563C146.419 100.935 146.882 100.241 148.072 99.1499L149.725 97.6295L146.519 97.1998C142.916 96.7371 139.412 95.7456 138.652 94.9854C137.396 93.6963 138.487 93.3988 142.056 94.0599C143.643 94.3243 146.717 94.6548 148.898 94.7209L152.865 94.8862L155.74 92.8039C162.053 88.2427 168.597 85.6646 171.737 86.4579C173.687 86.9206 173.456 87.4494 171.242 87.7139C168.697 88.0113 167.143 88.8707 160.4 93.7294Z" fill="white"/>
<path d="M168.895 156.33C168.895 156.165 169.093 156 169.357 156C169.622 156 169.952 156.165 170.051 156.33C170.151 156.529 169.952 156.661 169.589 156.661C169.192 156.661 168.895 156.529 168.895 156.33Z" fill="white"/>
<path d="M170.878 156.033C170.878 155.669 171.704 155.339 172.63 155.339C173.357 155.372 173.357 155.372 172.729 155.834C172.002 156.396 170.878 156.495 170.878 156.033Z" fill="white"/>
<path d="M165.755 155.173C165.656 154.909 165.524 154.446 165.424 154.182C165.325 153.851 165.49 153.686 165.92 153.686C166.284 153.686 166.581 153.884 166.581 154.149C166.581 154.413 166.68 154.843 166.78 155.14C166.912 155.504 166.813 155.669 166.449 155.669C166.152 155.669 165.821 155.438 165.755 155.173Z" fill="white"/>
<path d="M167.506 154.347C167.341 153.355 167.705 153.025 168.895 153.025C169.258 153.025 169.556 153.355 169.688 153.917C169.952 154.876 169.523 155.339 168.366 155.339C167.837 155.339 167.606 155.107 167.506 154.347Z" fill="white"/>
<path d="M164.135 154.512C163.507 154.017 163.507 154.017 164.201 154.017C164.631 154.017 164.928 154.215 164.928 154.512C164.928 155.107 164.928 155.107 164.135 154.512Z" fill="white"/>
<path d="M170.779 154.479C170.349 154.05 170.548 152.761 171.077 152.562C172.035 152.199 172.465 152.364 172.663 153.223C172.795 153.719 172.861 154.149 172.795 154.182C172.531 154.479 170.977 154.678 170.779 154.479Z" fill="white"/>
<path d="M173.721 153.785C173.622 153.686 173.522 153.256 173.522 152.86C173.522 152.298 173.787 152.067 174.58 151.901C175.274 151.769 175.704 151.835 175.902 152.1C176.233 152.628 176.233 153.29 175.935 153.455C175.34 153.785 173.952 153.984 173.721 153.785Z" fill="white"/>
<path d="M162.615 152.761C162.615 152.364 162.913 152.033 163.342 151.934C164.202 151.703 164.169 151.67 164.334 152.529C164.4 153.025 164.235 153.223 163.541 153.289C162.814 153.389 162.615 153.256 162.615 152.761Z" fill="white"/>
<path d="M165.127 152.794C164.664 152.298 164.961 151.372 165.589 151.372C166.019 151.372 166.25 151.604 166.25 152C166.25 152.628 165.49 153.157 165.127 152.794Z" fill="white"/>
<path d="M167.11 151.802C166.845 151.174 167.407 150.711 168.498 150.711C168.994 150.711 169.225 150.909 169.225 151.339C169.225 151.703 168.928 152.033 168.498 152.165C167.407 152.43 167.341 152.43 167.11 151.802Z" fill="white"/>
<path d="M176.662 151.703C176.761 151.538 176.927 151.372 177.026 151.372C177.125 151.372 177.092 151.538 176.993 151.703C176.894 151.901 176.728 152.033 176.629 152.033C176.53 152.033 176.563 151.901 176.662 151.703Z" fill="white"/>
<path d="M170.085 151.141C169.82 150.48 170.151 150.149 171.209 149.984C171.804 149.918 172.068 150.05 172.134 150.513C172.365 151.604 170.481 152.199 170.085 151.141Z" fill="white"/>
<path d="M162.152 150.579C161.854 149.488 161.92 149.389 162.78 149.389C163.242 149.389 163.606 149.521 163.606 149.687C163.606 149.852 163.705 150.215 163.804 150.48C163.903 150.81 163.705 151.009 163.143 151.108C162.515 151.24 162.284 151.108 162.152 150.579Z" fill="white"/>
<path d="M173.191 150.215C173.191 149.621 173.423 149.356 174.051 149.191C174.976 148.96 175.505 149.422 175.505 150.48C175.505 150.91 175.241 151.042 174.348 151.042C173.324 151.042 173.191 150.943 173.191 150.215Z" fill="white"/>
<path d="M161.161 150.216C161.062 149.951 161.128 149.72 161.293 149.72C161.491 149.72 161.624 149.951 161.624 150.216C161.624 150.48 161.557 150.711 161.491 150.711C161.425 150.711 161.293 150.48 161.161 150.216Z" fill="white"/>
<path d="M164.498 150.48C164.036 150.05 164.3 149.125 164.895 148.96C165.259 148.86 165.622 148.893 165.721 148.993C166.118 149.356 165.887 150.315 165.391 150.513C164.763 150.744 164.763 150.744 164.498 150.48Z" fill="white"/>
<path d="M176.299 150.249C175.935 149.29 176.332 148.563 177.257 148.464C177.951 148.365 178.15 148.497 178.15 149.026C178.15 150.116 177.786 150.711 177.125 150.711C176.762 150.711 176.398 150.513 176.299 150.249Z" fill="white"/>
<path d="M166.813 149.819C166.416 149.455 166.548 148.794 167.11 148.596C167.738 148.365 169.06 149.026 168.697 149.389C168.234 149.786 167.044 150.083 166.813 149.819Z" fill="white"/>
<path d="M169.688 148.993C169.391 148.53 170.448 147.737 171.308 147.737C171.704 147.737 171.869 147.935 171.803 148.298C171.671 148.959 169.985 149.488 169.688 148.993Z" fill="white"/>
<path d="M160.631 148.761C160.631 148.596 160.532 148.232 160.433 147.935C160.334 147.637 160.367 147.406 160.565 147.406C160.995 147.406 161.325 148.662 160.929 148.926C160.764 149.026 160.631 148.959 160.631 148.761Z" fill="white"/>
<path d="M161.524 148.001C161.326 147.274 161.723 146.745 162.483 146.745C162.913 146.745 163.342 148.034 163.078 148.464C162.714 149.026 161.69 148.695 161.524 148.001Z" fill="white"/>
<path d="M163.837 148.166C163.342 147.671 163.639 146.481 164.3 146.315C164.796 146.183 165.06 146.348 165.325 146.943C165.523 147.373 165.622 147.803 165.556 147.869C165.226 148.166 164.036 148.398 163.837 148.166Z" fill="white"/>
<path d="M172.762 148.166C172.332 147.737 172.531 147.472 173.522 147.109C174.349 146.844 174.58 146.877 174.745 147.274C175.043 148.067 173.39 148.827 172.762 148.166Z" fill="white"/>
<path d="M175.671 147.406C175.34 146.877 175.803 146.415 176.662 146.415C177.687 146.415 177.984 147.274 177.059 147.538C176.067 147.803 175.902 147.77 175.671 147.406Z" fill="white"/>
<path d="M178.479 146.613C178.479 146.117 179.074 145.588 179.339 145.853C179.57 146.084 179.107 147.075 178.777 147.075C178.612 147.075 178.479 146.877 178.479 146.613Z" fill="white"/>
<path d="M160.202 146.183C160.07 146.084 159.97 145.654 160.003 145.291C160.003 144.663 160.037 144.663 160.334 145.39C160.665 146.183 160.598 146.58 160.202 146.183Z" fill="white"/>
<path d="M160.83 145.687C160.532 144.531 160.565 144.431 161.425 144.431C162.383 144.431 162.978 145.654 162.251 146.117C161.491 146.58 161.061 146.448 160.83 145.687Z" fill="white"/>
<path d="M172.2 146.348C172.2 146.249 172.365 145.72 172.564 145.125C173.026 143.803 174.051 143.737 174.282 145.026C174.382 145.522 174.415 145.952 174.382 145.985C174.216 146.183 172.2 146.481 172.2 146.348Z" fill="white"/>
<path d="M163.177 145.522C163.044 145.423 162.945 145.026 162.945 144.663C162.945 144.134 163.044 144.101 163.441 144.431C163.706 144.663 163.937 145.059 163.937 145.291C163.937 145.786 163.54 145.919 163.177 145.522Z" fill="white"/>
<path d="M175.075 144.861C174.877 143.836 175.307 143.374 176.331 143.506C176.827 143.572 176.992 143.87 176.992 144.597C176.992 145.423 176.86 145.621 176.133 145.687C175.406 145.787 175.241 145.621 175.075 144.861Z" fill="white"/>
<path d="M178.314 144.993C177.885 143.671 178.017 143.275 178.909 143.176C179.703 143.076 179.802 143.176 179.802 144.035C179.802 144.762 179.603 145.059 179.108 145.192C178.744 145.291 178.381 145.192 178.314 144.993Z" fill="white"/>
<path d="M159.706 143.109C159.706 142.481 159.772 142.217 159.871 142.547C159.937 142.845 159.937 143.374 159.871 143.704C159.772 144.002 159.706 143.737 159.706 143.109Z" fill="white"/>
<path d="M160.533 143.539C160.103 143.142 160.302 141.853 160.83 141.655C161.591 141.358 161.954 141.721 161.954 142.812C161.954 143.506 161.789 143.77 161.359 143.77C161.029 143.77 160.632 143.671 160.533 143.539Z" fill="white"/>
<path d="M162.516 142.646C162.384 142.151 162.318 141.622 162.45 141.523C162.781 141.192 162.979 141.721 162.88 142.68L162.781 143.605L162.516 142.646Z" fill="white"/>
<path d="M173.191 142.415C173.191 142.052 173.357 141.853 173.522 141.952C173.72 142.052 173.852 142.382 173.852 142.647C173.852 142.911 173.72 143.109 173.522 143.109C173.357 143.109 173.191 142.812 173.191 142.415Z" fill="white"/>
<path d="M174.679 142.845C174.216 142.349 174.579 141.457 175.34 141.258C176.298 141.027 176.331 141.027 176.629 141.986C176.827 142.581 176.695 142.713 175.835 142.845C175.307 142.944 174.778 142.911 174.679 142.845Z" fill="white"/>
<path d="M177.72 142.217C177.356 141.886 177.455 140.796 177.819 140.796C178.017 140.796 178.149 140.663 178.149 140.465C178.149 140.3 177.951 140.135 177.687 140.135C177.125 140.135 176.662 138.515 177.125 138.052C177.72 137.457 178.381 138.085 178.777 139.705C179.009 140.564 179.24 141.556 179.339 141.886C179.471 142.316 179.339 142.448 178.711 142.448C178.282 142.448 177.819 142.349 177.72 142.217Z" fill="white"/>
<path d="M179.504 140.465C179.273 139.473 178.678 137.49 178.248 136.036C177.587 133.921 177.521 133.392 177.885 133.161C178.116 132.995 178.413 132.863 178.513 132.863C178.876 132.863 180.198 139.639 180.066 140.961L179.967 142.283L179.504 140.465Z" fill="white"/>
<path d="M159.376 140.3C159.376 139.771 159.442 139.573 159.541 139.903C159.607 140.201 159.607 140.663 159.541 140.895C159.442 141.093 159.376 140.862 159.376 140.3Z" fill="white"/>
<path d="M160.037 140.234C160.169 139.077 161.127 138.813 161.392 139.87C161.623 140.73 161.689 140.63 160.698 140.961C160.004 141.159 159.937 141.093 160.037 140.234Z" fill="white"/>
<path d="M173.985 139.936C173.72 138.978 174.282 138.416 175.34 138.548C176.133 138.647 176.431 140.068 175.77 140.498C174.943 141.027 174.183 140.796 173.985 139.936Z" fill="white"/>
<path d="M161.954 139.672C161.954 139.11 162.119 138.812 162.483 138.812C162.813 138.812 162.946 139.044 162.88 139.54C162.714 140.597 161.954 140.696 161.954 139.672Z" fill="white"/>
<path d="M159.012 138.284C159.012 137.92 159.111 137.821 159.211 138.085C159.31 138.317 159.277 138.614 159.178 138.713C159.078 138.846 158.979 138.647 159.012 138.284Z" fill="white"/>
<path d="M159.641 138.185C159.641 137.689 159.839 137.49 160.335 137.49C160.797 137.49 160.963 137.656 160.897 138.052C160.731 138.912 159.641 139.011 159.641 138.185Z" fill="white"/>
<path d="M161.458 137.887C161.227 137.292 161.227 137.292 162.218 137.028C162.813 136.829 162.946 136.928 162.946 137.424C162.946 138.218 161.756 138.614 161.458 137.887Z" fill="white"/>
<path d="M173.423 137.424C173.191 136.598 173.621 136.168 174.778 136.168C175.34 136.168 175.505 136.367 175.505 136.995C175.505 137.491 175.307 137.821 175.042 137.821C174.778 137.821 174.348 137.92 174.084 138.019C173.786 138.119 173.555 137.92 173.423 137.424Z" fill="white"/>
<path d="M176.299 136.664C176.034 136.003 176.431 135.507 177.191 135.507C177.654 135.507 177.819 135.739 177.819 136.334C177.819 136.929 177.654 137.16 177.158 137.16C176.794 137.16 176.398 136.929 176.299 136.664Z" fill="white"/>
<path d="M159.31 136.201C159.31 135.507 160.07 134.714 160.4 135.078C160.532 135.177 160.632 135.64 160.632 136.069C160.632 136.598 160.433 136.829 159.971 136.829C159.541 136.829 159.31 136.598 159.31 136.201Z" fill="white"/>
<path d="M161.127 135.805C160.863 134.979 161.16 134.615 162.284 134.45C163.309 134.318 163.639 135.408 162.747 136.069C161.887 136.697 161.359 136.598 161.127 135.805Z" fill="white"/>
<path d="M173.092 135.606C172.861 135.408 172.762 134.185 172.96 134.185C172.993 134.185 173.489 134.053 174.084 133.888C175.075 133.59 175.141 133.623 175.108 134.516C175.075 135.177 174.877 135.507 174.381 135.639C173.489 135.871 173.356 135.871 173.092 135.606Z" fill="white"/>
<path d="M171.869 134.846C171.869 134.615 171.968 134.516 172.101 134.615C172.2 134.747 172.2 134.945 172.101 135.078C171.968 135.177 171.869 135.078 171.869 134.846Z" fill="white"/>
<path d="M175.571 134.317C175.671 133.756 176.695 132.929 176.927 133.194C177.026 133.293 177.191 133.689 177.29 134.119C177.521 134.78 177.422 134.846 176.497 134.846C175.704 134.846 175.472 134.714 175.571 134.317Z" fill="white"/>
<path d="M159.641 134.284C159.641 134.119 159.806 133.789 159.971 133.524C160.236 133.127 160.302 133.161 160.302 133.789C160.302 134.185 160.169 134.516 159.971 134.516C159.806 134.516 159.641 134.417 159.641 134.284Z" fill="white"/>
<path d="M160.632 133.557C160.632 132.632 161.326 132.334 161.855 133.028C162.185 133.524 162.185 133.689 161.855 133.921C161.161 134.351 160.632 134.218 160.632 133.557Z" fill="white"/>
<path d="M170.68 133.127C170.085 132.466 170.085 132.433 170.647 132.632C170.977 132.764 171.407 132.863 171.572 132.863C171.738 132.863 171.87 133.094 171.87 133.359C171.87 134.053 171.407 133.987 170.68 133.127Z" fill="white"/>
<path d="M163.574 133.094C162.152 132.004 161.954 129.558 163.276 129.558C164.169 129.558 164.995 130.946 164.863 132.235C164.763 133.425 164.367 133.689 163.574 133.094Z" fill="white"/>
<path d="M172.63 133.293C172.762 133.194 172.961 133.194 173.093 133.293C173.192 133.425 173.093 133.524 172.861 133.524C172.63 133.524 172.531 133.425 172.63 133.293Z" fill="white"/>
<path d="M177.62 132.004C177.72 131.706 177.819 131.409 177.819 131.343C177.819 131.277 177.984 131.21 178.149 131.21C178.347 131.21 178.48 131.508 178.48 131.871C178.48 132.268 178.248 132.533 177.951 132.533C177.587 132.533 177.488 132.367 177.62 132.004Z" fill="white"/>
<path d="M160.301 131.905C160.301 131.144 160.995 129.888 161.392 129.888C162.086 129.888 161.59 132.004 160.863 132.136C160.565 132.202 160.301 132.103 160.301 131.905Z" fill="white"/>
<path d="M167.738 131.541L166.746 131.31L167.638 131.078C168.564 130.814 169.225 131.012 169.225 131.574C169.225 131.905 169.192 131.905 167.738 131.541Z" fill="white"/>
<path d="M166.581 129.954C166.581 128.599 167.341 128.401 168.035 129.591C168.498 130.384 168.531 130.549 168.101 130.549C167.837 130.549 167.407 130.649 167.11 130.748C166.713 130.913 166.581 130.715 166.581 129.954Z" fill="white"/>
<path d="M172.333 130.417C170.845 129.756 169.887 128.004 169.887 125.922C169.887 124.435 170.019 124.071 170.911 123.245C171.473 122.716 172.035 122.286 172.2 122.286C172.928 122.286 175.605 124.831 176.497 126.418L177.522 128.236L176.431 129.393C175.175 130.715 173.787 131.078 172.333 130.417Z" fill="white"/>
<path d="M165.425 129.558C165.325 129.393 165.391 129.227 165.557 129.227C165.755 129.227 165.92 129.393 165.92 129.558C165.92 129.756 165.854 129.888 165.788 129.888C165.689 129.888 165.524 129.756 165.425 129.558Z" fill="white"/>
<path d="M161.095 129.029C161.194 128.732 161.293 128.434 161.293 128.368C161.293 128.302 161.59 128.236 161.954 128.236C162.78 128.236 162.813 128.765 161.987 129.227C161.095 129.69 160.863 129.657 161.095 129.029Z" fill="white"/>
<path d="M163.706 128.632C162.946 128.533 162.714 128.104 163.21 127.806C163.342 127.707 163.937 127.542 164.532 127.409C165.425 127.211 165.59 127.277 165.59 127.839C165.59 128.533 164.896 128.831 163.706 128.632Z" fill="white"/>
<path d="M166.251 127.509C166.251 127.112 166.284 126.881 166.35 126.947C166.383 127.013 166.648 127.343 166.879 127.674C167.276 128.137 167.243 128.236 166.78 128.236C166.449 128.236 166.251 127.971 166.251 127.509Z" fill="white"/>
<path d="M161.623 127.277C161.623 127.079 161.788 126.848 161.954 126.748C162.152 126.649 162.284 126.782 162.284 127.046C162.284 127.343 162.152 127.575 161.954 127.575C161.788 127.575 161.623 127.443 161.623 127.277Z" fill="white"/>
<path d="M162.846 126.781C162.581 126.12 164.928 125.393 165.325 126.021C165.622 126.55 165.325 126.781 164.069 127.046C163.309 127.211 162.978 127.145 162.846 126.781Z" fill="white"/>
<path d="M165.953 125.724C165.953 125.36 166.052 125.261 166.151 125.526C166.25 125.757 166.217 126.054 166.118 126.154C166.019 126.286 165.92 126.088 165.953 125.724Z" fill="white"/>
<path d="M163.144 125.195C163.541 124.468 164.697 123.278 164.995 123.278C165.325 123.278 165.358 124.832 165.028 125.03C164.863 125.096 164.334 125.261 163.838 125.393C163.111 125.559 162.946 125.526 163.144 125.195Z" fill="white"/>
<path d="M165.788 124.435C165.425 123.443 165.59 123.014 166.383 122.881C167.209 122.716 167.209 122.716 166.681 123.741C166.019 125.063 166.053 125.063 165.788 124.435Z" fill="white"/>
<path d="M165.59 122.452C165.59 122.385 166.251 121.923 167.077 121.46C168.069 120.865 168.763 120.667 169.259 120.799C169.854 120.997 169.688 121.129 168.234 121.824C166.614 122.551 165.59 122.815 165.59 122.452Z" fill="white"/>
<path d="M183.934 93.1674C183.041 91.8784 181.157 89.7961 179.802 88.5401C178.447 87.2841 177.554 86.2595 177.819 86.2595C178.546 86.2595 184.099 87.7799 185.487 88.3749C186.644 88.8706 186.677 88.9368 186.379 89.9614C186.214 90.5563 186.082 92.0437 186.082 93.2666C186.082 94.5226 185.983 95.5141 185.851 95.5141C185.685 95.5141 184.859 94.4565 183.934 93.1674Z" fill="white"/>
<path d="M116.672 193.282C115.317 192.588 115.019 192.192 113.301 188.787C110.822 183.962 110.756 182.838 113.102 185.581C114.028 186.672 116.176 188.92 117.862 190.572C120.737 193.349 120.87 193.547 119.911 193.415C119.217 193.316 118.953 193.382 119.118 193.646C119.515 194.241 118.259 194.076 116.672 193.282Z" fill="white"/>
<path fill-rule="evenodd" clip-rule="evenodd" d="M172.064 253.501C171.79 252.849 172.096 252.099 172.747 251.824L173.459 251.522C180.383 248.56 184.357 246.78 187.057 243.955C189.757 241.129 190.08 236.979 190.588 234.453C190.727 233.76 192.296 234.977 192.989 235.116C193.682 235.256 194.131 235.93 193.992 236.623C193.382 239.66 191.74 242.555 189.095 245.303C186.46 248.041 181.358 250.977 173.741 254.184C173.089 254.458 172.339 254.152 172.064 253.501Z" fill="#2067A1"/>
<path fill-rule="evenodd" clip-rule="evenodd" d="M203.373 121.622C203.981 121.261 204.766 121.46 205.128 122.068C208.748 128.15 210.688 135.102 210.688 142.336C210.688 164.251 192.923 182.016 171.008 182.016C165.185 182.016 159.537 180.76 154.365 178.367C153.723 178.07 151.3 175.707 153.741 176.668C156.182 177.629 165.626 179.787 171.076 179.787C191.577 179.787 206.08 162.837 206.08 142.336C206.08 135.567 203.373 129.558 202.928 123.377C202.877 122.661 202.766 121.984 203.373 121.622Z" fill="#2067A1"/>
<path fill-rule="evenodd" clip-rule="evenodd" d="M76.6041 218.499C77.0566 217.956 77.8637 216.858 78.4069 217.31C80.6352 219.166 83.013 221.317 85.5566 221.732C88.2035 222.164 91.3435 222.164 94.9727 221.725C95.6745 221.64 96.3123 222.14 96.3973 222.841C96.4822 223.543 95.9822 224.181 95.2804 224.266C91.4264 224.733 88.049 224.733 85.1443 224.259C82.1363 223.768 79.339 222.443 76.7684 220.301C76.2253 219.849 76.1517 219.042 76.6041 218.499Z" fill="#2067A1"/>
<path d="M103.782 173.716C102.129 172.394 98.5923 168.493 95.9151 165.056C94.5269 163.238 92.9735 159.536 92.048 155.801C91.6183 154.116 91.1886 152.595 91.0895 152.397C90.9573 152.232 90.4284 149.885 89.8996 147.175C89.1063 143.341 89.2741 142.105 88.5775 137.519C88.2826 135.578 88.0156 134.033 88.0156 134.033L88.875 132.929C89.3708 132.268 89.9979 131.174 90.2301 130.549C91.2878 127.703 99.0551 118.783 99.2864 119.014C99.3525 119.08 99.0881 120.634 98.6254 122.452C98.1957 124.269 97.6669 127.013 97.4355 128.566C97.105 131.144 96.9728 131.442 95.9482 132.301C94.6591 133.392 92.2133 136.895 92.2133 137.623C92.2133 138.614 93.7006 137.953 95.2541 136.334L96.8406 134.681V136.499C96.8406 137.689 96.6092 138.779 96.1795 139.639C95.3532 141.258 95.3532 142.977 96.1465 144.299C96.5431 144.96 96.9067 146.547 97.138 148.431C98.1627 156.958 100.344 164.362 104.079 171.799C105.004 173.65 105.732 175.17 105.699 175.17C105.632 175.17 104.773 174.509 103.782 173.716Z" fill="white"/>
<path fill-rule="evenodd" clip-rule="evenodd" d="M241.312 194.109L243.692 195.167C244.186 195.394 249.629 198.01 256.168 201.152C266.711 206.218 280.1 212.651 280.182 212.651C280.314 212.651 280.934 211.217 281.074 209.544C281.405 205.942 282.628 201.05 284.049 197.646C284.71 196.125 285.239 194.225 285.239 194.06C285.239 193.984 284.702 193.768 283.822 193.413C282.775 192.99 281.242 192.372 279.554 191.564C271.225 187.565 254.93 179.401 252.914 178.178C250.931 177.021 250.534 176.922 250.534 177.682C250.534 178.674 248.518 183.268 246.964 185.747C246.138 187.102 244.519 189.548 243.362 191.167L241.312 194.109ZM279.62 206.702C280.568 207.251 278.926 208.057 278.529 208.189C276.194 208.388 273.444 207.948 271.192 206.636C270.014 205.8 260.739 200.648 254.587 197.23C251.774 195.667 249.614 194.467 249.179 194.208C247.791 193.382 246.469 192.489 246.237 192.225C245.543 191.333 246.204 190.936 248.154 191.101C249.327 191.201 277.573 205.515 279.62 206.702Z" fill="white"/>
<path d="M217.58 197.083C216.721 196.786 215.795 196.125 215.201 195.365L214.209 194.142L217.713 190.671C223.1 185.383 227.066 179.603 230.636 173.158C231.826 171.01 235.362 162.346 235.792 161.387C236.453 159.999 236.949 159.47 238.37 158.677C240.056 157.685 241.973 157.355 242.799 157.917C244.386 158.974 244.386 162.313 242.799 168.064C241.047 174.377 238.701 178.905 233.842 185.416C233.082 186.408 231.661 188.358 230.636 189.713C227.893 193.349 226.108 195.1 223.695 196.456C221.315 197.778 219.927 197.943 217.58 197.083Z" fill="white"/>
<path d="M230.042 196.323L229.348 195.629C229.348 195.629 240.868 180.993 242.932 175.6C244.507 171.484 245.434 170.317 246.685 170.317C247.385 170.317 247.956 170.477 248.22 170.873C248.683 171.567 249.129 172.427 248.534 175.368C247.543 180.128 246.022 183.268 241.461 190.043C240.403 191.597 239.048 193.316 238.453 193.911C237.065 195.2 233.942 196.522 232.124 196.819C230.967 196.984 230.637 196.918 230.042 196.323Z" fill="white"/>
<path fill-rule="evenodd" clip-rule="evenodd" d="M249.392 181.018C250.059 179.493 250.534 178.163 250.534 177.682C250.534 176.922 250.93 177.021 252.913 178.178C254.929 179.401 271.224 187.565 279.553 191.564C282.66 193.051 285.238 193.894 285.238 194.06C285.238 194.225 248.685 182.635 249.392 181.018Z" fill="#E7EAEE"/>
<path fill-rule="evenodd" clip-rule="evenodd" d="M136.305 182.904C132.108 180.161 125.762 173.716 122.688 169.121C118.292 162.511 115.383 155.438 113.962 147.836C112.937 142.316 112.971 133.822 113.995 128.897C115.053 123.873 116.408 120.039 118.821 115.18C121.63 109.561 124.605 105.43 129.067 100.968C133.443 96.592 113.995 114.687 118.821 147.063C122.688 174.194 139.307 184.882 136.305 182.904Z" fill="#E7EAEE"/>
</svg>
